<svg width="40" height="40" xmlns="http://www.w3.org/2000/svg" xmlns:xlink="http://www.w3.org/1999/xlink"><defs><path id="a" d="M0 0h40v40H0z"/></defs><g fill="none" fill-rule="evenodd"><mask id="b" fill="#fff"><use xlink:href="#a"/></mask><path d="M27.952 23.298c-.039.852-.175 1.434-.372 1.942a3.912 3.912 0 01-.923 1.417 3.908 3.908 0 01-1.417.923c-.509.197-1.09.333-1.94.372-.855.038-1.127.048-3.3.048s-2.445-.01-3.298-.048c-.852-.04-1.434-.175-1.942-.372a3.9 3.9 0 01-1.417-.923 3.9 3.9 0 01-.923-1.417c-.198-.508-.333-1.09-.372-1.942C12.01 22.445 12 22.173 12 20s.01-2.445.048-3.298c.04-.852.174-1.433.372-1.942.204-.526.478-.973.923-1.417.444-.445.89-.718 1.417-.923.508-.198 1.09-.333 1.942-.372.853-.04 1.125-.048 3.298-.048s2.445.009 3.3.048c.85.039 1.431.174 1.94.372a3.92 3.92 0 011.417.923c.444.444.72.89.923 1.417.197.509.333 1.09.372 1.942.04.853.048 1.125.048 3.298s-.009 2.445-.048 3.298M20 0C8.954 0 0 8.954 0 20s8.954 20 20 20 20-8.954 20-20S31.046 0 20 0" fill="#222222" mask="url(/sites/mnhn/files/css/optimized/%23b)"/><path d="M20 22.667a2.667 2.667 0 110-5.334 2.667 2.667 0 010 5.334m0-6.775a4.108 4.108 0 100 8.215 4.108 4.108 0 000-8.215m4.27-1.122a.96.96 0 10.001 1.92.96.96 0 000-1.92" fill="#222222"/></g></svg>