<svg width="40" height="40" xmlns="http://www.w3.org/2000/svg" xmlns:xlink="http://www.w3.org/1999/xlink"><defs><path id="a" d="M0 0h40v40H0z"/></defs><g fill="none" fill-rule="evenodd"><mask id="b" fill="#fff"><use xlink:href="#a"/></mask><path d="M28.531 20.645c0 1.38-.17 2.762-.17 2.762s-.168 1.175-.68 1.692c-.648.68-1.376.683-1.709.724C23.585 25.994 20 26 20 26s-4.436-.041-5.8-.172c-.38-.07-1.233-.049-1.882-.729-.512-.517-.679-1.692-.679-1.692s-.17-1.381-.17-2.762V19.35c0-1.381.17-2.762.17-2.762s.167-1.175.68-1.693c.648-.68 1.375-.684 1.708-.724C16.415 14 19.997 14 19.997 14h.007s3.581 0 5.968.173c.333.04 1.061.043 1.71.723.511.519.678 1.694.678 1.694s.171 1.38.171 2.762v1.294zM20.001 0C8.953 0 0 8.954 0 20s8.953 20 20 20c11.045 0 20-8.954 20-20S31.045 0 20 0z" fill="#222222" mask="url(/sites/mnhn/files/css/optimized/%23b)"/><path fill="#222222" d="M18.239 22.213l4.609-2.39-4.61-2.404z"/></g></svg>